<?xml version="1.0" encoding="UTF-8" standalone="no" ?>
<svg xmlns="http://www.w3.org/2000/svg" xmlns:xlink="http://www.w3.org/1999/xlink" version="1.1" width="1080" height="400" viewBox="0 0 1080 1080" xml:space="preserve">
<desc>Created with Fabric.js 5.2.4</desc>
<defs>
</defs>
<g transform="matrix(1 0 0 1 540 540)" id="1214e658-32bc-4b62-8d9a-dc2981704eb8"  >
<rect style="stroke: none; stroke-width: 1; stroke-dasharray: none; stroke-linecap: butt; stroke-dashoffset: 0; stroke-linejoin: miter; stroke-miterlimit: 4; fill: rgb(255,255,255); fill-rule: nonzero; opacity: 1; visibility: hidden;" vector-effect="non-scaling-stroke"  x="-540" y="-540" rx="0" ry="0" width="1080" height="1080" />
</g>
<g transform="matrix(1 0 0 1 540 540)" id="0b99265c-d169-456c-91b8-5f6e3f94163f"  >
</g>
<g transform="matrix(2.11 0 0 2.11 540 540)"  >
<g style=""   >
		<g transform="matrix(0.31 0 0 0.31 -65 0)" id="Rectangle-path"  >
<rect style="stroke: none; stroke-width: 1; stroke-dasharray: none; stroke-linecap: butt; stroke-dashoffset: 0; stroke-linejoin: miter; stroke-miterlimit: 4; fill: rgb(0,182,122); fill-rule: nonzero; opacity: 1;" vector-effect="non-scaling-stroke"  x="-48" y="-48" rx="0" ry="0" width="96" height="96" />
</g>
		<g transform="matrix(0.31 0 0 0.31 -32.5 0)" id="Trustpilot_ratings_4halfstar-RGB"  >
<rect style="stroke: none; stroke-width: 1; stroke-dasharray: none; stroke-linecap: butt; stroke-dashoffset: 0; stroke-linejoin: miter; stroke-miterlimit: 4; fill: rgb(0,182,122); fill-rule: nonzero; opacity: 1;" vector-effect="non-scaling-stroke"  x="-48" y="-48" rx="0" ry="0" width="96" height="96" />
</g>
		<g transform="matrix(0.31 0 0 0.31 0 0)" id="Trustpilot_ratings_4halfstar-RGB"  >
<rect style="stroke: none; stroke-width: 1; stroke-dasharray: none; stroke-linecap: butt; stroke-dashoffset: 0; stroke-linejoin: miter; stroke-miterlimit: 4; fill: rgb(0,182,122); fill-rule: nonzero; opacity: 1;" vector-effect="non-scaling-stroke"  x="-48" y="-48" rx="0" ry="0" width="96" height="96" />
</g>
		<g transform="matrix(0.31 0 0 0.31 32.5 0)" id="Trustpilot_ratings_4halfstar-RGB"  >
<rect style="stroke: none; stroke-width: 1; stroke-dasharray: none; stroke-linecap: butt; stroke-dashoffset: 0; stroke-linejoin: miter; stroke-miterlimit: 4; fill: rgb(0,182,122); fill-rule: nonzero; opacity: 1;" vector-effect="non-scaling-stroke"  x="-48" y="-48" rx="0" ry="0" width="96" height="96" />
</g>
		<g transform="matrix(0.31 0 0 0.31 72.5 0)" id="Half"  >
<rect style="stroke: none; stroke-width: 1; stroke-dasharray: none; stroke-linecap: butt; stroke-dashoffset: 0; stroke-linejoin: miter; stroke-miterlimit: 4; fill: rgb(220,220,230); fill-rule: nonzero; opacity: 1;" vector-effect="non-scaling-stroke"  x="-24" y="-48" rx="0" ry="0" width="48" height="96" />
</g>
		<g transform="matrix(0.31 0 0 0.31 57.5 0)" id="Half"  >
<rect style="stroke: none; stroke-width: 1; stroke-dasharray: none; stroke-linecap: butt; stroke-dashoffset: 0; stroke-linejoin: miter; stroke-miterlimit: 4; fill: rgb(0,182,122); fill-rule: nonzero; opacity: 1;" vector-effect="non-scaling-stroke"  x="-24" y="-48" rx="0" ry="0" width="48" height="96" />
</g>
		<g transform="matrix(0.31 0 0 0.31 -65 0)" id="Shape"  >
<path style="stroke: none; stroke-width: 1; stroke-dasharray: none; stroke-linecap: butt; stroke-dashoffset: 0; stroke-linejoin: miter; stroke-miterlimit: 4; fill: rgb(255,255,255); fill-rule: nonzero; opacity: 1;" vector-effect="non-scaling-stroke"  transform=" translate(-48, -48)" d="M 48 64.7 L 62.6 61 L 68.7 79.8 L 48 64.7 z M 81.6 40.4 L 55.9 40.4 L 48 16.2 L 40.1 40.4 L 14.4 40.4 L 35.2 55.4 L 27.300000000000004 79.6 L 48.10000000000001 64.6 L 60.900000000000006 55.39999999999999 L 81.6 40.4 L 81.6 40.4 L 81.6 40.4 L 81.6 40.4 z" stroke-linecap="round" />
</g>
		<g transform="matrix(0.31 0 0 0.31 -32.5 0)" id="Trustpilot_ratings_4halfstar-RGB"  >
<path style="stroke: none; stroke-width: 1; stroke-dasharray: none; stroke-linecap: butt; stroke-dashoffset: 0; stroke-linejoin: miter; stroke-miterlimit: 4; fill: rgb(255,255,255); fill-rule: nonzero; opacity: 1;" vector-effect="non-scaling-stroke"  transform=" translate(-152, -48)" d="M 152 64.7 L 166.6 61 L 172.7 79.8 L 152 64.7 z M 185.6 40.4 L 159.9 40.4 L 152 16.2 L 144.1 40.4 L 118.39999999999999 40.4 L 139.2 55.4 L 131.29999999999998 79.6 L 152.1 64.6 L 164.9 55.39999999999999 L 185.6 40.4 L 185.6 40.4 L 185.6 40.4 L 185.6 40.4 z" stroke-linecap="round" />
</g>
		<g transform="matrix(0.31 0 0 0.31 0 0)" id="Trustpilot_ratings_4halfstar-RGB"  >
<path style="stroke: none; stroke-width: 1; stroke-dasharray: none; stroke-linecap: butt; stroke-dashoffset: 0; stroke-linejoin: miter; stroke-miterlimit: 4; fill: rgb(255,255,255); fill-rule: nonzero; opacity: 1;" vector-effect="non-scaling-stroke"  transform=" translate(-256, -48)" d="M 256 64.7 L 270.6 61 L 276.70000000000005 79.8 L 256 64.7 z M 289.6 40.4 L 263.90000000000003 40.4 L 256 16.2 L 248.1 40.4 L 222.4 40.4 L 243.20000000000002 55.4 L 235.3 79.6 L 256.1 64.6 L 268.90000000000003 55.39999999999999 L 289.6 40.4 L 289.6 40.4 L 289.6 40.4 L 289.6 40.4 z" stroke-linecap="round" />
</g>
		<g transform="matrix(0.31 0 0 0.31 32.5 0)" id="Trustpilot_ratings_4halfstar-RGB"  >
<path style="stroke: none; stroke-width: 1; stroke-dasharray: none; stroke-linecap: butt; stroke-dashoffset: 0; stroke-linejoin: miter; stroke-miterlimit: 4; fill: rgb(255,255,255); fill-rule: nonzero; opacity: 1;" vector-effect="non-scaling-stroke"  transform=" translate(-360, -48)" d="M 360 64.7 L 374.6 61 L 380.70000000000005 79.8 L 360 64.7 z M 393.6 40.4 L 367.90000000000003 40.4 L 360 16.2 L 352.1 40.4 L 326.40000000000003 40.4 L 347.20000000000005 55.4 L 339.30000000000007 79.6 L 360.1000000000001 64.6 L 372.9000000000001 55.39999999999999 L 393.6 40.4 L 393.6 40.4 L 393.6 40.4 L 393.6 40.4 z" stroke-linecap="round" />
</g>
		<g transform="matrix(0.31 0 0 0.31 65 0)" id="Trustpilot_ratings_4halfstar-RGB"  >
<path style="stroke: none; stroke-width: 1; stroke-dasharray: none; stroke-linecap: butt; stroke-dashoffset: 0; stroke-linejoin: miter; stroke-miterlimit: 4; fill: rgb(255,255,255); fill-rule: nonzero; opacity: 1;" vector-effect="non-scaling-stroke"  transform=" translate(-464, -48)" d="M 464 64.7 L 478.6 61 L 484.70000000000005 79.8 L 464 64.7 z M 497.6 40.4 L 471.90000000000003 40.4 L 464 16.2 L 456.1 40.4 L 430.40000000000003 40.4 L 451.20000000000005 55.4 L 443.30000000000007 79.6 L 464.1000000000001 64.6 L 476.9000000000001 55.39999999999999 L 497.6 40.4 L 497.6 40.4 L 497.6 40.4 L 497.6 40.4 z" stroke-linecap="round" />
</g>
</g>
</g>
</svg>